<?xml version="1.0" standalone="no"?>
<!DOCTYPE svg PUBLIC "-//W3C//DTD SVG 20010904//EN"
 "http://www.w3.org/TR/2001/REC-SVG-20010904/DTD/svg10.dtd">
<svg version="1.0" xmlns="http://www.w3.org/2000/svg"
 width="512.000000pt" height="512.000000pt" viewBox="0 0 512.000000 512.000000"
 preserveAspectRatio="xMidYMid meet">
<metadata>
Created by potrace 1.11, written by Peter Selinger 2001-2013
</metadata>
<g transform="translate(0.000000,512.000000) scale(0.100000,-0.100000)"
fill="#000000" stroke="none">
<path d="M2365 5114 c-108 -9 -326 -46 -435 -73 -172 -44 -335 -105 -509 -192
-503 -249 -900 -646 -1150 -1150 -126 -252 -198 -480 -243 -764 -32 -201 -32
-549 0 -750 45 -284 117 -512 243 -764 249 -503 646 -900 1150 -1150 252 -126
480 -198 764 -243 201 -32 549 -32 750 0 284 45 512 117 764 243 504 250 901
647 1150 1150 126 252 198 480 243 764 32 201 32 549 0 750 -45 284 -117 512
-243 764 -249 503 -646 900 -1150 1150 -357 178 -685 258 -1084 265 -110 2
-222 2 -250 0z m400 -1174 c749 -48 1284 -267 1285 -526 0 -240 -482 -450
-1180 -513 -171 -16 -581 -13 -766 4 -595 57 -1023 221 -1120 429 -28 61 -30
86 -7 152 19 58 100 141 186 192 326 194 982 301 1602 262z m-1721 -1410 c14
-72 149 -176 310 -241 307 -122 681 -180 1161 -180 471 0 891 69 1172 192 161
71 283 173 283 236 0 20 5 23 41 23 l42 0 -6 -37 c-9 -53 -63 -128 -132 -180
-271 -205 -867 -327 -1520 -310 -780 20 -1374 225 -1430 495 -7 32 -6 32 33
32 36 0 40 -3 46 -30z m0 -850 c14 -72 149 -176 310 -241 307 -122 681 -180
1161 -180 471 0 891 69 1172 192 161 71 283 173 283 236 0 20 5 23 41 23 l42
0 -6 -37 c-9 -53 -63 -128 -132 -180 -271 -205 -867 -327 -1520 -310 -780 20
-1374 225 -1430 495 -7 32 -6 32 33 32 36 0 40 -3 46 -30z"/>
<path d="M2170 3859 c-356 -29 -685 -105 -895 -209 -311 -154 -311 -312 0
-468 194 -96 488 -167 845 -204 161 -16 619 -16 780 1 615 63 1072 249 1072
436 0 169 -383 346 -907 419 -248 35 -636 46 -895 25z"/>
</g>
</svg>
