<?xml version="1.0" standalone="no"?>
<!DOCTYPE svg PUBLIC "-//W3C//DTD SVG 20010904//EN"
 "http://www.w3.org/TR/2001/REC-SVG-20010904/DTD/svg10.dtd">
<svg version="1.0" xmlns="http://www.w3.org/2000/svg"
 width="700.000000pt" height="700.000000pt" viewBox="0 0 700.000000 700.000000"
 preserveAspectRatio="xMidYMid meet">
<metadata>
Created by potrace 1.11, written by Peter Selinger 2001-2013
</metadata>
<g transform="translate(0.000000,700.000000) scale(0.100000,-0.100000)"
fill="#000000" stroke="none">
<path d="M3225 6994 c-246 -25 -498 -70 -680 -123 -1007 -289 -1826 -1002
-2249 -1956 -102 -228 -176 -461 -226 -705 -56 -278 -64 -367 -64 -710 0 -343
8 -432 64 -710 224 -1101 978 -2034 2015 -2494 301 -134 618 -223 975 -273
179 -25 701 -25 880 0 734 103 1343 382 1890 863 556 490 951 1173 1100 1904
56 278 64 367 64 710 0 343 -8 432 -64 710 -224 1101 -978 2034 -2015 2494
-300 134 -622 224 -970 272 -114 15 -617 28 -720 18z m690 -1695 c872 -55
1534 -292 1661 -594 26 -63 22 -154 -10 -220 -143 -291 -800 -517 -1670 -575
-201 -13 -656 -13 -846 0 -787 55 -1381 233 -1604 482 -75 82 -91 120 -91 213
0 69 4 87 28 131 33 60 118 146 197 199 127 86 355 176 593 236 495 124 1098
168 1742 128z m-2436 -1896 c98 -190 551 -372 1151 -462 1021 -153 2274 3
2722 339 55 42 118 114 130 151 3 9 77 -7 91 -21 5 -4 -1 -27 -13 -50 -125
-246 -688 -464 -1404 -545 -445 -50 -1022 -46 -1451 10 -708 92 -1227 310
-1333 558 -11 25 -10 28 11 36 21 8 53 17 69 20 4 0 16 -16 27 -36z m0 -1120
c98 -190 551 -372 1151 -462 1021 -153 2274 3 2722 339 55 42 118 114 130 151
3 9 77 -7 91 -21 5 -4 -1 -27 -13 -50 -125 -246 -688 -464 -1404 -545 -445
-50 -1022 -46 -1451 10 -708 92 -1227 310 -1333 558 -11 25 -10 28 11 36 21 8
53 17 69 20 4 0 16 -16 27 -36z"/>
<path d="M3070 5199 c-608 -40 -1156 -172 -1424 -343 -223 -142 -252 -297 -84
-438 379 -318 1504 -491 2523 -388 537 55 1007 184 1235 340 266 182 217 377
-135 546 -268 128 -611 212 -1085 264 -267 29 -740 38 -1030 19z"/>
</g>
</svg>
